<svg id="Group_3" data-name="Group 3" xmlns="http://www.w3.org/2000/svg" width="546.831" height="509.26" viewBox="0 0 546.831 509.26">
  <g id="Group_1" data-name="Group 1" transform="translate(74.416)" opacity="0.1">
    <path id="Path_1" data-name="Path 1" d="M68.519,207.411l280.3,56.825s28.443,3.017,28.443,34.2V555.906s5.964,28.664-46.334,28.161-293.6-8.046-293.6-8.046-32.113-.5-32.113-68.392V237.584s-8.716-52.8,63.308-30.173" transform="translate(-4.88 -201.773)" fill="#4fc7f3"/>
  </g>
  <g id="Group_2" data-name="Group 2" transform="translate(286.386 197.296)" opacity="0.1">
    <path id="Path_2" data-name="Path 2" d="M538.857,440,342.929,482.453h-.007c-.23.027-19.88,2.39-19.88,25.547V700.35s-4.169,21.414,32.389,21.038,205.233-6.011,205.233-6.011,22.447-.376,22.447-51.093V462.543S589.2,423.1,538.857,440" transform="translate(-322.898 -435.791)" fill="#177eb0"/>
  </g>
  <path id="Path_3" data-name="Path 3" d="M-1.2,689.7V673.1a2.182,2.182,0,0,1,.6-1.57l-.671-201.863S10.6,416.18-58,406.656-170.717,366.048-183.321,422V689.329s7.615,24.289,22.714,33.9,122.232,3.4,122.232,3.4,24.6-.005,37.346-35.965A2.616,2.616,0,0,1-1.2,689.7Z" transform="translate(183.321 -219.347)" fill="#0098cd" opacity="0.1"/>
</svg>
