<svg xmlns="http://www.w3.org/2000/svg" width="60.093" height="67.48" viewBox="0 0 60.093 67.48">
  <g id="Group_350" data-name="Group 350" transform="translate(-1041 -75.706)">
    <path id="Subtraction_1" data-name="Subtraction 1" d="M26.525,51.474a26.721,26.721,0,0,1-5.346-.539,26.379,26.379,0,0,1-9.485-3.991,26.6,26.6,0,0,1-9.61-11.67A26.391,26.391,0,0,1,.539,30.3,26.716,26.716,0,0,1,1.3,16.727,26.588,26.588,0,0,1,17.5,0a26.569,26.569,0,0,0,.775,5.087,26.4,26.4,0,0,0,1.692,4.721,26.571,26.571,0,0,0,2.513,4.259,26.734,26.734,0,0,0,3.237,3.7,26.7,26.7,0,0,0,3.865,3.046,26.513,26.513,0,0,0,4.4,2.295,26.4,26.4,0,0,0,4.833,1.448,26.734,26.734,0,0,0,5.172.5,26.451,26.451,0,0,0,9.026-1.575c.026.486.04.979.04,1.463A26.72,26.72,0,0,1,52.51,30.3a26.379,26.379,0,0,1-3.991,9.484,26.6,26.6,0,0,1-11.67,9.61,26.39,26.39,0,0,1-4.979,1.546A26.72,26.72,0,0,1,26.525,51.474Z" transform="translate(1041 91.712)" fill="#fff"/>
    <ellipse id="Ellipse_23" data-name="Ellipse 23" cx="17" cy="16" rx="17" ry="16" transform="translate(1067.093 75.706)" fill="#fff"/>
  </g>
</svg>
